<svg xmlns="http://www.w3.org/2000/svg" viewBox="0 0 900 500">

  <!-- BACKGROUND -->
  <rect width="900" height="500" fill="#ede5de"/>

  <!-- ══ CORK BOARD (upper right) ══ -->
  <rect x="572" y="28" width="296" height="234" rx="8" fill="#7d5428"/>
  <rect x="589" y="45" width="262" height="200" rx="4" fill="#c49450"/>
  <line x1="602" y1="45" x2="589" y2="62" stroke="#aa8035" stroke-width="1.2" opacity="0.55"/>
  <line x1="630" y1="45" x2="589" y2="90" stroke="#aa8035" stroke-width="1.2" opacity="0.55"/>
  <line x1="665" y1="45" x2="610" y2="103" stroke="#aa8035" stroke-width="1.2" opacity="0.55"/>
  <line x1="700" y1="45" x2="658" y2="90"  stroke="#aa8035" stroke-width="1.2" opacity="0.55"/>
  <line x1="736" y1="45" x2="708" y2="76"  stroke="#aa8035" stroke-width="1.2" opacity="0.55"/>
  <rect x="633" y="57" width="152" height="32" rx="5" fill="#fefce8" stroke="#d4c07a" stroke-width="1.2"/>
  <text x="709" y="78" text-anchor="middle" font-family="Georgia, serif" font-size="14.5" font-weight="700" fill="#4a3015">My Projects</text>
  <g transform="rotate(-3,630,132)"><rect x="596" y="102" width="68" height="58" rx="2" fill="#fdd835"/></g>
  <g transform="rotate(2,713,134)"><rect x="677" y="103" width="68" height="58" rx="2" fill="#ff7043"/><rect x="677" y="103" width="68" height="10" rx="2" fill="#ef5350"/></g>
  <g transform="rotate(-1,786,132)"><rect x="752" y="100" width="68" height="58" rx="2" fill="#80deea"/></g>
  <g transform="rotate(2,630,196)"><rect x="596" y="172" width="68" height="50" rx="2" fill="#ce93d8"/></g>
  <g transform="rotate(-2,713,194)"><rect x="677" y="170" width="68" height="50" rx="2" fill="#a5d6a7"/></g>
  <g transform="rotate(1,786,195)"><rect x="752" y="171" width="68" height="50" rx="2" fill="#ffcc80"/></g>
  <circle cx="630" cy="104" r="5.5" fill="#d32f2f"/><circle cx="630" cy="104" r="2.5" fill="#ffcdd2"/>
  <circle cx="713" cy="105" r="5.5" fill="#1565c0"/><circle cx="713" cy="105" r="2.5" fill="#bbdefb"/>
  <circle cx="786" cy="102" r="5.5" fill="#2e7d32"/><circle cx="786" cy="102" r="2.5" fill="#c8e6c9"/>
  <circle cx="630" cy="174" r="5.5" fill="#e65100"/><circle cx="630" cy="174" r="2.5" fill="#ffe0b2"/>
  <circle cx="713" cy="172" r="5.5" fill="#6a1b9a"/><circle cx="713" cy="172" r="2.5" fill="#e1bee7"/>
  <circle cx="786" cy="173" r="5.5" fill="#880e4f"/><circle cx="786" cy="173" r="2.5" fill="#fce4ec"/>

  <!-- ══ MONITOR (upper left) ══ -->
  <rect x="38" y="58" width="268" height="202" rx="14" fill="#252525"/>
  <rect x="52" y="72" width="240" height="176" rx="8" fill="#0d1825"/>
  <line x1="78" y1="212" x2="278" y2="212" stroke="#1e3a5a" stroke-width="1.5"/>
  <rect x="85" y="176" width="28" height="36" rx="2" fill="#6366f1"/>
  <rect x="123" y="154" width="28" height="58" rx="2" fill="#22c55e"/>
  <rect x="161" y="182" width="28" height="30" rx="2" fill="#f59e0b"/>
  <rect x="199" y="142" width="28" height="70" rx="2" fill="#ef4444"/>
  <rect x="237" y="162" width="28" height="50" rx="2" fill="#06b6d4"/>
  <rect x="268" y="149" width="22" height="63" rx="2" fill="#a78bfa"/>
  <polyline points="99,178 137,156 175,184 213,144 251,164 279,151" stroke="rgba(255,255,255,0.7)" stroke-width="2" fill="none" stroke-linecap="round" stroke-linejoin="round"/>
  <circle cx="99"  cy="178" r="3" fill="white" opacity="0.9"/>
  <circle cx="137" cy="156" r="3" fill="white" opacity="0.9"/>
  <circle cx="175" cy="184" r="3" fill="white" opacity="0.9"/>
  <circle cx="213" cy="144" r="3" fill="white" opacity="0.9"/>
  <circle cx="251" cy="164" r="3" fill="white" opacity="0.9"/>
  <circle cx="279" cy="151" r="3" fill="white" opacity="0.9"/>
  <rect x="66" y="83"  width="62" height="7" rx="3" fill="#1e3344" opacity="0.8"/>
  <rect x="66" y="95"  width="45" height="6" rx="3" fill="#1e3344" opacity="0.6"/>
  <rect x="66" y="106" width="78" height="6" rx="3" fill="#1e3344" opacity="0.45"/>
  <circle cx="172" cy="65" r="3.5" fill="#222"/>
  <rect x="158" y="260" width="10" height="90" fill="#2a2a2a"/>

  <!-- ══ PLANT (far left) ══ -->
  <rect x="13" y="306" width="38" height="48" rx="4" fill="#6d4c41"/>
  <ellipse cx="32" cy="308" rx="19" ry="10" fill="#8d6e63"/>
  <ellipse cx="32" cy="306" rx="14" ry="7" fill="#5d4037"/>
  <path d="M32,303 Q14,278 17,254 Q26,267 32,282Z" fill="#43a047"/>
  <path d="M32,303 Q50,278 47,254 Q38,267 32,282Z" fill="#388e3c"/>
  <path d="M32,301 Q11,283 9,259 Q21,270 29,284Z" fill="#66bb6a"/>
  <path d="M32,301 Q53,283 55,259 Q43,270 35,284Z" fill="#2e7d32"/>
  <path d="M32,300 Q32,268 32,247 Q36,262 34,280Z" fill="#81c784"/>

  <!-- ══ CHAIR ══ -->
  <rect x="355" y="285" width="190" height="82" rx="20" fill="#3c3030"/>
  <rect x="370" y="300" width="160" height="56" rx="13" fill="#4c3e3e"/>

  <!-- ══ PERSON BODY ══ -->
  <ellipse cx="450" cy="292" rx="93" ry="58" fill="#1f1f1f"/>
  <path d="M363,318 Q361,352 367,364 Q450,354 533,364 Q539,352 537,318 Q503,286 450,283 Q397,286 363,318Z" fill="#1f1f1f"/>
  <path d="M422,262 Q450,278 478,262" stroke="#2e2e2e" stroke-width="2.5" fill="none" stroke-linecap="round"/>

  <!-- ══ ARM SLEEVES — drawn BEFORE desk so desk edge hides the wrist/forearm ══ -->
  <!-- Arms angle gently inward and down toward the keyboard -->
  <path d="M376,308 Q368,342 392,366" stroke="#1f1f1f" stroke-width="34" stroke-linecap="round" fill="none"/>
  <path d="M524,308 Q532,342 508,366" stroke="#1f1f1f" stroke-width="34" stroke-linecap="round" fill="none"/>

  <!-- ══ NECK ══ -->
  <rect x="430" y="233" width="40" height="54" rx="10" fill="#d8a472"/>

  <!-- ══ HEAD ══ -->
  <ellipse cx="450" cy="192" rx="66" ry="70" fill="#d8a472"/>
  <!-- Ears -->
  <ellipse cx="384" cy="198" rx="14" ry="17" fill="#d8a472"/>
  <ellipse cx="384" cy="198" rx="8"  ry="11" fill="#c08254"/>
  <ellipse cx="516" cy="198" rx="14" ry="17" fill="#d8a472"/>
  <ellipse cx="516" cy="198" rx="8"  ry="11" fill="#c08254"/>

  <!-- ══ HAIR — wrap-around: outer traces head ~12px proud, inner traces hairline
       in opposite direction so winding rule leaves face area unfilled ══ -->
  <path d="M390,140
           Q413,113 450,108
           Q488,109 510,126
           Q524,148 526,175
           Q527,198 520,215
           Q516,198 514,182
           Q508,148 450,142
           Q392,148 386,182
           Q384,198 380,215
           Q373,200 374,178
           Q377,150 390,140Z" fill="#18120a"/>
  <!-- Crown highlight -->
  <path d="M396,138 Q420,116 450,112 Q480,113 504,130
           Q522,146 524,168
           Q504,150 450,146
           Q396,150 376,168
           Q378,146 396,138Z" fill="#231a0c"/>

  <!-- ══ EYEBROWS ══ -->
  <path d="M404,170 Q420,162 440,165" stroke="#18120a" stroke-width="5.5" fill="none" stroke-linecap="round"/>
  <path d="M460,165 Q480,162 496,170" stroke="#18120a" stroke-width="5.5" fill="none" stroke-linecap="round"/>

  <!-- ══ EYES ══ -->
  <ellipse cx="421" cy="185" rx="14" ry="13" fill="white"/>
  <ellipse cx="479" cy="185" rx="14" ry="13" fill="white"/>
  <circle  cx="423" cy="186" r="9"   fill="#1e1408"/>
  <circle  cx="477" cy="186" r="9"   fill="#1e1408"/>
  <circle  cx="424" cy="187" r="5.5" fill="#080402"/>
  <circle  cx="478" cy="187" r="5.5" fill="#080402"/>
  <circle  cx="427" cy="183" r="2.8" fill="white"/>
  <circle  cx="481" cy="183" r="2.8" fill="white"/>

  <!-- ══ NOSE ══ -->
  <path d="M446,204 Q450,216 454,204" stroke="#b07848" stroke-width="2.5" fill="none" stroke-linecap="round"/>
  <path d="M441,216 Q450,224 459,216" stroke="#b07848" stroke-width="2.5" fill="none" stroke-linecap="round"/>

  <!-- ══ SMILE ══ -->
  <path d="M432,231 Q450,248 468,231" stroke="#906640" stroke-width="3.5" fill="none" stroke-linecap="round"/>

  <!-- ══ DESK SURFACE (drawn after arms — hides forearm/wrist area naturally) ══ -->
  <polygon points="26,356 874,356 843,432 57,432" fill="#d4a468"/>
  <line x1="26" y1="356" x2="874" y2="356" stroke="#e8bc7a" stroke-width="2.5"/>
  <line x1="90"  y1="357" x2="84"  y2="430" stroke="#be8e50" stroke-width="1" opacity="0.42"/>
  <line x1="215" y1="356" x2="210" y2="431" stroke="#be8e50" stroke-width="1" opacity="0.42"/>
  <line x1="360" y1="356" x2="356" y2="431" stroke="#be8e50" stroke-width="1" opacity="0.42"/>
  <line x1="515" y1="356" x2="512" y2="431" stroke="#be8e50" stroke-width="1" opacity="0.42"/>
  <line x1="665" y1="356" x2="662" y2="430" stroke="#be8e50" stroke-width="1" opacity="0.42"/>
  <line x1="793" y1="357" x2="790" y2="429" stroke="#be8e50" stroke-width="1" opacity="0.42"/>

  <!-- Monitor stand base -->
  <rect x="114" y="348" width="88" height="11" rx="6" fill="#2a2a2a"/>

  <!-- ══ BOOKS ══ -->
  <rect x="68"  y="337" width="96" height="19" rx="3" fill="#e53935"/>
  <rect x="68"  y="337" width="7"  height="19" rx="1" fill="#b71c1c"/>
  <rect x="157" y="337" width="7"  height="19" fill="#ffcdd2"/>
  <rect x="71"  y="318" width="90" height="19" rx="3" fill="#1e88e5"/>
  <rect x="71"  y="318" width="7"  height="19" rx="1" fill="#0d47a1"/>
  <rect x="154" y="318" width="7"  height="19" fill="#e3f2fd"/>
  <rect x="69"  y="301" width="92" height="18" rx="3" fill="#43a047"/>
  <rect x="69"  y="301" width="7"  height="18" rx="1" fill="#1b5e20"/>
  <rect x="154" y="301" width="7"  height="18" fill="#e8f5e9"/>
  <rect x="73"  y="287" width="83" height="15" rx="3" fill="#fdd835"/>
  <rect x="73"  y="287" width="6"  height="15" rx="1" fill="#f9a825"/>
  <rect x="149" y="287" width="7"  height="15" fill="#fffde7"/>


  <!-- ══ COFFEE MUG ══ -->
  <rect x="625" y="318" width="54" height="40" rx="9" fill="#5b8dd9"/>
  <ellipse cx="652" cy="319" rx="27" ry="10" fill="#82aff5"/>
  <ellipse cx="652" cy="319" rx="22" ry="7.5" fill="#2c1d0a"/>
  <path d="M679,329 Q701,329 701,339 Q701,349 679,349" stroke="#5b8dd9" stroke-width="8" fill="none" stroke-linecap="round"/>
  <path d="M634,326 Q636,332 634,340" stroke="rgba(255,255,255,0.32)" stroke-width="4.5" fill="none" stroke-linecap="round"/>
  <path d="M639,311 Q643,297 639,284 Q635,272 639,259" stroke="#c8a890" stroke-width="2.8" fill="none" stroke-linecap="round" opacity="0.72"/>
  <path d="M652,307 Q656,292 652,278 Q648,265 652,252" stroke="#c8a890" stroke-width="2.8" fill="none" stroke-linecap="round" opacity="0.72"/>
  <path d="M665,311 Q669,297 665,284 Q661,272 665,259" stroke="#c8a890" stroke-width="2.8" fill="none" stroke-linecap="round" opacity="0.72"/>

  <!-- ══ CAT (orange tabby) ══ -->
  <path d="M800,345 Q836,332 840,354 Q844,372 822,374" stroke="#e8903a" stroke-width="12" fill="none" stroke-linecap="round"/>
  <ellipse cx="772" cy="324" rx="30" ry="36" fill="#e8903a"/>
  <ellipse cx="772" cy="336" rx="18" ry="24" fill="#f5c070"/>
  <circle cx="772" cy="284" r="28" fill="#e8903a"/>
  <polygon points="748,270 754,248 768,268" fill="#e8903a"/>
  <polygon points="751,268 755,252 766,266" fill="#f5a0b0"/>
  <polygon points="776,268 790,248 796,270" fill="#e8903a"/>
  <polygon points="778,266 790,252 793,268" fill="#f5a0b0"/>
  <ellipse cx="761" cy="281" rx="8"  ry="9"  fill="#2a1808"/>
  <ellipse cx="783" cy="281" rx="8"  ry="9"  fill="#2a1808"/>
  <ellipse cx="762" cy="282" rx="4.5" ry="6" fill="#0a0604"/>
  <ellipse cx="784" cy="282" rx="4.5" ry="6" fill="#0a0604"/>
  <circle cx="764" cy="279" r="2.5" fill="white"/>
  <circle cx="786" cy="279" r="2.5" fill="white"/>
  <polygon points="772,292 768,298 776,298" fill="#d04060"/>
  <path d="M768,298 Q772,303 776,298" stroke="#804030" stroke-width="1.5" fill="none" stroke-linecap="round"/>
  <path d="M772,303 Q767,308 762,306" stroke="#804030" stroke-width="1.5" fill="none" stroke-linecap="round"/>
  <path d="M772,303 Q777,308 782,306" stroke="#804030" stroke-width="1.5" fill="none" stroke-linecap="round"/>
  <line x1="770" y1="294" x2="740" y2="288" stroke="#888" stroke-width="1" opacity="0.65"/>
  <line x1="770" y1="297" x2="740" y2="300" stroke="#888" stroke-width="1" opacity="0.65"/>
  <line x1="774" y1="294" x2="804" y2="288" stroke="#888" stroke-width="1" opacity="0.65"/>
  <line x1="774" y1="297" x2="804" y2="300" stroke="#888" stroke-width="1" opacity="0.65"/>
  <path d="M764,270 Q772,264 780,270" stroke="#c8783a" stroke-width="2" fill="none" opacity="0.55"/>
  <ellipse cx="754" cy="356" rx="15" ry="9" fill="#e8903a"/>
  <ellipse cx="790" cy="356" rx="15" ry="9" fill="#e8903a"/>
  <line x1="747" y1="358" x2="749" y2="363" stroke="#c0783a" stroke-width="1.5" opacity="0.55"/>
  <line x1="754" y1="360" x2="754" y2="365" stroke="#c0783a" stroke-width="1.5" opacity="0.55"/>
  <line x1="761" y1="358" x2="759" y2="363" stroke="#c0783a" stroke-width="1.5" opacity="0.55"/>
  <line x1="783" y1="358" x2="785" y2="363" stroke="#c0783a" stroke-width="1.5" opacity="0.55"/>
  <line x1="790" y1="360" x2="790" y2="365" stroke="#c0783a" stroke-width="1.5" opacity="0.55"/>
  <line x1="797" y1="358" x2="795" y2="363" stroke="#c0783a" stroke-width="1.5" opacity="0.55"/>

  <!-- ══ DESK FRONT FACE ══ -->
  <polygon points="57,432 843,432 843,464 57,464" fill="#b8894a"/>
  <line x1="57" y1="432" x2="843" y2="432" stroke="#986a30" stroke-width="1.5"/>

  <!-- ══ DESK LEGS ══ -->
  <rect x="75"  y="464" width="32" height="30" rx="5" fill="#a07840"/>
  <rect x="793" y="464" width="32" height="30" rx="5" fill="#a07840"/>

</svg>
